<svg width="1000" height="582" viewBox="0 0 1000 582" fill="none" xmlns="http://www.w3.org/2000/svg">
<path d="M466.601 209.613C463.78 212.434 460.307 214.515 456.488 215.672C452.67 216.829 448.625 217.025 444.713 216.243C440.801 215.461 437.142 213.726 434.061 211.191C430.98 208.656 428.573 205.399 427.053 201.711C425.533 198.022 424.947 194.015 425.347 190.046C425.747 186.076 427.121 182.267 429.346 178.955C431.572 175.644 434.58 172.933 438.105 171.064C441.63 169.195 445.561 168.224 449.551 168.239C451.141 168.241 452.728 168.403 454.286 168.723C457.349 169.341 460.263 170.552 462.863 172.286C464.207 173.18 465.46 174.205 466.601 175.347L483.742 192.472L466.601 209.613Z" fill="white"/>
<path fill-rule="evenodd" clip-rule="evenodd" d="M500 363.64C600.416 363.64 681.82 282.236 681.82 181.82C681.82 81.4036 600.416 0 500 0C399.584 0 318.18 81.4036 318.18 181.82C318.18 282.236 399.584 363.64 500 363.64ZM566.439 168.719C569.616 168.081 572.889 168.081 576.066 168.719C578.867 169.279 581.546 170.333 583.977 171.834C585.346 172.7 586.969 173.077 588.58 172.902C590.191 172.728 591.696 172.013 592.848 170.873L609.605 154.117C610.329 153.394 610.891 152.525 611.251 151.567C611.612 150.61 611.764 149.586 611.696 148.565C611.628 147.544 611.342 146.549 610.858 145.648C610.373 144.746 609.702 143.959 608.888 143.339C607.468 142.244 606.014 141.223 604.526 140.274C592.65 132.689 578.539 129.392 564.532 130.928C550.524 132.463 537.463 138.741 527.513 148.719L510.373 165.862L493.229 148.719C484.499 139.997 473.363 134.081 461.248 131.73C449.134 129.38 436.593 130.701 425.235 135.525V116.259C425.235 114.358 424.48 112.535 423.135 111.19C421.791 109.846 419.967 109.091 418.066 109.091H394.768C392.867 109.091 391.044 109.846 389.699 111.19C388.355 112.535 387.6 114.358 387.6 116.259V192.472C387.597 204.71 391.223 216.673 398.02 226.849C404.818 237.024 414.48 244.956 425.786 249.639C437.091 254.322 449.532 255.547 461.534 253.159C473.536 250.771 484.56 244.877 493.211 236.223L554.109 175.329C557.475 171.954 561.765 169.654 566.439 168.719ZM576.063 216.222C572.888 216.86 569.617 216.86 566.442 216.222C561.768 215.287 557.476 212.987 554.109 209.612L547.105 202.608C545.761 201.264 543.938 200.509 542.037 200.509C540.136 200.509 538.313 201.264 536.969 202.608L520.481 219.096C519.815 219.762 519.287 220.552 518.926 221.422C518.566 222.292 518.38 223.225 518.38 224.166C518.38 225.108 518.566 226.04 518.926 226.91C519.287 227.78 519.815 228.571 520.481 229.236L527.488 236.24C537.438 246.218 550.499 252.495 564.507 254.031C578.514 255.567 592.625 252.269 604.501 244.685C605.737 243.892 607.368 242.663 608.938 241.383C609.719 240.751 610.358 239.962 610.814 239.066C611.27 238.171 611.533 237.19 611.585 236.186C611.638 235.183 611.479 234.18 611.118 233.242C610.758 232.304 610.204 231.452 609.494 230.742L592.837 214.085C591.685 212.946 590.181 212.23 588.57 212.055C586.959 211.88 585.336 212.256 583.966 213.121C581.535 214.613 578.86 215.663 576.063 216.222Z" fill="white"/>
<path d="M0 579.968V461.327H47.4963C56.2233 461.327 63.5022 462.62 69.333 465.208C75.1639 467.796 79.5467 471.387 82.4814 475.983C85.4161 480.54 86.8835 485.793 86.8835 491.74C86.8835 496.374 85.9567 500.449 84.1032 503.963C82.2497 507.439 79.7011 510.297 76.4575 512.537C73.2524 514.738 69.584 516.302 65.4522 517.229V518.388C69.9702 518.581 74.1985 519.856 78.1372 522.211C82.1145 524.567 85.3389 527.869 87.8102 532.117C90.2816 536.327 91.5173 541.348 91.5173 547.179C91.5173 553.474 89.9534 559.094 86.8256 564.037C83.7364 568.942 79.1605 572.823 73.098 575.681C67.0354 578.539 59.5635 579.968 50.682 579.968H0ZM25.0804 559.46H45.5269C52.5162 559.46 57.6134 558.128 60.8184 555.463C64.0235 552.76 65.626 549.168 65.626 544.688C65.626 541.406 64.8344 538.509 63.2512 535.999C61.668 533.488 59.409 531.519 56.4743 530.09C53.5781 528.661 50.1221 527.946 46.1062 527.946H25.0804V559.46ZM25.0804 510.973H43.6734C47.1102 510.973 50.1607 510.374 52.8252 509.177C55.5282 507.941 57.652 506.203 59.1966 503.963C60.7798 501.723 61.5714 499.039 61.5714 495.911C61.5714 491.624 60.0461 488.168 56.9956 485.542C53.9836 482.915 49.6974 481.602 44.1368 481.602H25.0804V510.973Z" fill="white"/>
<path d="M132.743 581.648C127.067 581.648 122.009 580.663 117.568 578.693C113.127 576.685 109.613 573.731 107.026 569.83C104.477 565.891 103.203 560.986 103.203 555.116C103.203 550.172 104.111 546.021 105.925 542.661C107.74 539.301 110.212 536.597 113.339 534.55C116.467 532.504 120.02 530.959 123.997 529.916C128.013 528.873 132.222 528.14 136.624 527.715C141.799 527.174 145.969 526.672 149.135 526.209C152.302 525.706 154.599 524.973 156.028 524.007C157.457 523.042 158.171 521.613 158.171 519.72V519.373C158.171 515.704 157.013 512.865 154.696 510.857C152.418 508.849 149.174 507.845 144.965 507.845C140.524 507.845 136.991 508.829 134.365 510.799C131.739 512.73 130.002 515.163 129.152 518.098L106.331 516.245C107.489 510.838 109.768 506.165 113.166 502.225C116.564 498.248 120.947 495.197 126.314 493.072C131.72 490.91 137.976 489.828 145.081 489.828C150.024 489.828 154.754 490.408 159.272 491.566C163.828 492.725 167.864 494.521 171.378 496.954C174.93 499.387 177.73 502.515 179.776 506.338C181.823 510.123 182.846 514.661 182.846 519.952V579.968H159.446V567.629H158.751C157.322 570.409 155.41 572.862 153.016 574.986C150.622 577.071 147.745 578.713 144.386 579.91C141.026 581.068 137.146 581.648 132.743 581.648ZM139.81 564.616C143.44 564.616 146.645 563.902 149.425 562.473C152.205 561.005 154.387 559.036 155.97 556.564C157.554 554.092 158.345 551.292 158.345 548.164V538.721C157.573 539.224 156.511 539.687 155.159 540.112C153.847 540.498 152.36 540.865 150.699 541.212C149.039 541.521 147.379 541.811 145.718 542.081C144.058 542.313 142.552 542.526 141.2 542.719C138.304 543.143 135.775 543.819 133.612 544.746C131.45 545.673 129.77 546.928 128.573 548.512C127.376 550.056 126.777 551.987 126.777 554.305C126.777 557.665 127.994 560.233 130.427 562.009C132.898 563.747 136.026 564.616 139.81 564.616Z" fill="white"/>
<path d="M226.665 528.526V579.968H201.99V490.987H225.506V506.686H226.549C228.518 501.511 231.82 497.417 236.453 494.405C241.087 491.354 246.706 489.828 253.309 489.828C259.487 489.828 264.874 491.18 269.469 493.883C274.064 496.587 277.636 500.449 280.185 505.47C282.733 510.452 284.008 516.399 284.008 523.312V579.968H259.333V527.715C259.371 522.269 257.981 518.021 255.162 514.97C252.343 511.88 248.463 510.336 243.52 510.336C240.199 510.336 237.264 511.05 234.716 512.479C232.206 513.908 230.236 515.994 228.808 518.736C227.418 521.439 226.703 524.702 226.665 528.526Z" fill="white"/>
<path d="M325.813 554.363L325.871 524.76H329.462L357.96 490.987H386.284L347.997 535.709H342.147L325.813 554.363ZM303.455 579.968V461.327H328.13V579.968H303.455ZM359.06 579.968L332.88 541.212L349.33 523.775L387.964 579.968H359.06Z" fill="white"/>
<path d="M430.363 581.822C422.176 581.822 415.322 579.871 409.8 575.971C404.278 572.07 400.378 566.605 398.1 559.576C395.86 552.547 395.494 544.36 397 535.014C398.467 525.9 401.382 517.963 405.746 511.205C410.148 504.407 415.612 499.155 422.138 495.448C428.702 491.701 435.923 489.828 443.801 489.828C451.987 489.828 458.822 491.798 464.305 495.737C469.827 499.638 473.727 505.122 476.006 512.189C478.284 519.218 478.67 527.444 477.164 536.868C475.697 545.905 472.743 553.803 468.302 560.561C463.9 567.281 458.436 572.514 451.91 576.26C445.423 579.968 438.24 581.822 430.363 581.822ZM430.595 569.54C436.85 569.54 442.276 567.938 446.871 564.732C451.504 561.527 455.25 557.298 458.108 552.045C461.004 546.793 462.954 541.116 463.958 535.014C464.885 529.221 464.846 523.833 463.842 518.851C462.838 513.831 460.695 509.795 457.413 506.744C454.13 503.654 449.516 502.11 443.569 502.11C437.314 502.11 431.85 503.732 427.177 506.976C422.543 510.22 418.798 514.487 415.94 519.778C413.083 525.069 411.171 530.766 410.206 536.868C409.279 542.661 409.298 548.048 410.264 553.03C411.268 557.974 413.411 561.971 416.693 565.022C420.014 568.034 424.648 569.54 430.595 569.54Z" fill="white"/>
<path d="M545.411 490.987L543.558 502.573H495.598L497.451 490.987H545.411ZM496.988 579.968L513.901 478.706C514.674 473.608 516.527 469.36 519.462 465.961C522.435 462.563 525.968 460.014 530.062 458.314C534.193 456.615 538.383 455.765 542.631 455.765C545.99 455.765 548.674 456.036 550.682 456.576C552.729 457.117 554.215 457.619 555.142 458.083L549.35 469.9C548.655 469.669 547.728 469.379 546.569 469.031C545.45 468.684 543.905 468.51 541.936 468.51C537.418 468.51 533.981 469.649 531.626 471.928C529.27 474.206 527.687 477.547 526.876 481.95L510.658 579.968H496.988Z" fill="white"/>
<path d="M659.619 502.863H634.249C633.786 499.58 632.84 496.664 631.411 494.115C629.982 491.528 628.148 489.326 625.909 487.511C623.669 485.696 621.082 484.306 618.147 483.34C615.251 482.375 612.104 481.892 608.706 481.892C602.566 481.892 597.218 483.417 592.661 486.468C588.105 489.481 584.571 493.883 582.061 499.676C579.551 505.431 578.296 512.421 578.296 520.647C578.296 529.105 579.551 536.211 582.061 541.966C584.61 547.72 588.163 552.065 592.719 555C597.276 557.935 602.547 559.403 608.532 559.403C611.891 559.403 615 558.958 617.857 558.07C620.753 557.182 623.321 555.888 625.561 554.189C627.801 552.451 629.654 550.346 631.122 547.874C632.628 545.403 633.67 542.583 634.249 539.417L659.619 539.532C658.963 544.978 657.322 550.23 654.696 555.29C652.109 560.31 648.614 564.809 644.212 568.787C639.849 572.727 634.636 575.855 628.573 578.172C622.549 580.451 615.734 581.59 608.126 581.59C597.546 581.59 588.085 579.195 579.745 574.406C571.442 569.618 564.878 562.685 560.051 553.61C555.263 544.534 552.869 533.546 552.869 520.647C552.869 507.709 555.301 496.703 560.167 487.627C565.032 478.551 571.635 471.638 579.976 466.888C588.317 462.099 597.7 459.705 608.126 459.705C615 459.705 621.371 460.67 627.241 462.601C633.149 464.532 638.381 467.351 642.938 471.059C647.494 474.728 651.201 479.227 654.059 484.557C656.955 489.886 658.808 495.988 659.619 502.863Z" fill="white"/>
<path d="M701.816 528.526V579.968H677.141V461.327H701.121V506.686H702.163C704.171 501.434 707.415 497.321 711.894 494.347C716.374 491.335 721.992 489.828 728.75 489.828C734.928 489.828 740.315 491.18 744.91 493.883C749.544 496.548 753.135 500.391 755.684 505.412C758.271 510.394 759.545 516.36 759.506 523.312V579.968H734.832V527.715C734.87 522.231 733.48 517.963 730.661 514.912C727.881 511.861 723.981 510.336 718.961 510.336C715.601 510.336 712.628 511.05 710.041 512.479C707.492 513.908 705.484 515.994 704.017 518.736C702.588 521.439 701.854 524.702 701.816 528.526Z" fill="white"/>
<path d="M804.295 581.648C798.618 581.648 793.56 580.663 789.119 578.693C784.679 576.685 781.165 573.731 778.577 569.83C776.029 565.891 774.754 560.986 774.754 555.116C774.754 550.172 775.662 546.021 777.477 542.661C779.292 539.301 781.763 536.597 784.891 534.55C788.019 532.504 791.571 530.959 795.549 529.916C799.565 528.873 803.774 528.14 808.176 527.715C813.35 527.174 817.52 526.672 820.687 526.209C823.853 525.706 826.151 524.973 827.58 524.007C829.008 523.042 829.723 521.613 829.723 519.72V519.373C829.723 515.704 828.564 512.865 826.247 510.857C823.969 508.849 820.725 507.845 816.516 507.845C812.076 507.845 808.542 508.829 805.917 510.799C803.291 512.73 801.553 515.163 800.704 518.098L777.882 516.245C779.041 510.838 781.319 506.165 784.717 502.225C788.115 498.248 792.498 495.197 797.865 493.072C803.272 490.91 809.527 489.828 816.632 489.828C821.575 489.828 826.305 490.408 830.823 491.566C835.38 492.725 839.415 494.521 842.929 496.954C846.482 499.387 849.281 502.515 851.328 506.338C853.374 510.123 854.398 514.661 854.398 519.952V579.968H830.997V567.629H830.302C828.873 570.409 826.962 572.862 824.568 574.986C822.174 577.071 819.297 578.713 815.937 579.91C812.578 581.068 808.697 581.648 804.295 581.648ZM811.361 564.616C814.991 564.616 818.196 563.902 820.976 562.473C823.757 561.005 825.938 559.036 827.522 556.564C829.105 554.092 829.897 551.292 829.897 548.164V538.721C829.124 539.224 828.062 539.687 826.711 540.112C825.398 540.498 823.911 540.865 822.251 541.212C820.59 541.521 818.93 541.811 817.269 542.081C815.609 542.313 814.103 542.526 812.751 542.719C809.855 543.143 807.326 543.819 805.164 544.746C803.001 545.673 801.322 546.928 800.124 548.512C798.927 550.056 798.329 551.987 798.329 554.305C798.329 557.665 799.545 560.233 801.978 562.009C804.449 563.747 807.577 564.616 811.361 564.616Z" fill="white"/>
<path d="M873.541 579.968V490.987H898.216V579.968H873.541ZM885.936 479.517C882.268 479.517 879.121 478.3 876.495 475.867C873.908 473.395 872.614 470.441 872.614 467.004C872.614 463.605 873.908 460.689 876.495 458.256C879.121 455.785 882.268 454.549 885.936 454.549C889.605 454.549 892.733 455.785 895.32 458.256C897.946 460.689 899.259 463.605 899.259 467.004C899.259 470.441 897.946 473.395 895.32 475.867C892.733 478.3 889.605 479.517 885.936 479.517Z" fill="white"/>
<path d="M942.657 528.526V579.968H917.982V490.987H941.498V506.686H942.541C944.51 501.511 947.812 497.417 952.446 494.405C957.079 491.354 962.698 489.828 969.301 489.828C975.479 489.828 980.866 491.18 985.461 493.883C990.057 496.587 993.628 500.449 996.177 505.47C998.726 510.452 1000 516.399 1000 523.312V579.968H975.325V527.715C975.364 522.269 973.973 518.021 971.155 514.97C968.336 511.88 964.455 510.336 959.512 510.336C956.191 510.336 953.257 511.05 950.708 512.479C948.198 513.908 946.229 515.994 944.8 518.736C943.41 521.439 942.695 524.702 942.657 528.526Z" fill="white"/>
</svg>
