<svg width="1000" height="128" viewBox="0 0 1000 128" fill="none" xmlns="http://www.w3.org/2000/svg">
<path d="M0 125.419V6.77784H47.4963C56.2233 6.77784 63.5022 8.07162 69.333 10.6592C75.1639 13.2467 79.5467 16.8384 82.4814 21.4342C85.4161 25.9914 86.8835 31.2437 86.8835 37.1912C86.8835 41.8256 85.9567 45.9001 84.1032 49.4145C82.2497 52.8903 79.7011 55.7482 76.4575 57.9882C73.2524 60.1895 69.584 61.7536 65.4522 62.6805V63.8391C69.9702 64.0322 74.1985 65.3067 78.1372 67.6625C82.1145 70.0184 85.3389 73.3204 87.8102 77.5686C90.2816 81.7782 91.5173 86.7988 91.5173 92.6305C91.5173 98.9255 89.9534 104.545 86.8256 109.488C83.7364 114.393 79.1605 118.274 73.098 121.132C67.0354 123.99 59.5635 125.419 50.682 125.419H0ZM25.0804 104.912H45.5269C52.5162 104.912 57.6134 103.579 60.8184 100.914C64.0235 98.2111 65.626 94.6194 65.626 90.1395C65.626 86.8567 64.8344 83.9602 63.2512 81.4499C61.668 78.9396 59.409 76.97 56.4743 75.541C53.5781 74.1121 50.1221 73.3976 46.1062 73.3976H25.0804V104.912ZM25.0804 56.4241H43.6734C47.1102 56.4241 50.1607 55.8254 52.8252 54.6282C55.5282 53.3924 57.652 51.6545 59.1966 49.4145C60.7798 47.1745 61.5714 44.4904 61.5714 41.3622C61.5714 37.0754 60.0461 33.6189 56.9956 30.9927C53.9836 28.3665 49.6974 27.0534 44.1368 27.0534H25.0804V56.4241Z" fill="url(#paint0_linear_1320_46598)"/>
<path d="M132.743 127.099C127.067 127.099 122.009 126.114 117.568 124.145C113.127 122.136 109.613 119.182 107.026 115.281C104.477 111.342 103.203 106.437 103.203 100.567C103.203 95.6235 104.111 91.4718 105.925 88.1119C107.74 84.7519 110.212 82.0485 113.339 80.0017C116.467 77.9548 120.02 76.41 123.997 75.3672C128.013 74.3245 132.222 73.5907 136.624 73.1659C141.799 72.6252 145.969 72.1231 149.135 71.6597C152.302 71.1576 154.599 70.4239 156.028 69.4584C157.457 68.4929 158.171 67.0639 158.171 65.1715V64.8239C158.171 61.155 157.013 58.3164 154.696 56.3082C152.418 54.2999 149.174 53.2958 144.965 53.2958C140.524 53.2958 136.991 54.2806 134.365 56.2503C131.739 58.1813 130.002 60.6143 129.152 63.5495L106.331 61.6957C107.489 56.2889 109.768 51.6158 113.166 47.6766C116.564 43.6987 120.947 40.6477 126.314 38.5236C131.72 36.3609 137.976 35.2795 145.081 35.2795C150.024 35.2795 154.754 35.8588 159.272 37.0174C163.828 38.176 167.864 39.9719 171.378 42.4049C174.93 44.838 177.73 47.9662 179.776 51.7896C181.823 55.5744 182.846 60.1123 182.846 65.4032V125.419H159.446V113.08H158.751C157.322 115.86 155.41 118.313 153.016 120.437C150.622 122.522 147.745 124.164 144.386 125.361C141.026 126.52 137.146 127.099 132.743 127.099ZM139.81 110.067C143.44 110.067 146.645 109.353 149.425 107.924C152.205 106.456 154.387 104.487 155.97 102.015C157.554 99.5435 158.345 96.7435 158.345 93.6153V84.1726C157.573 84.6747 156.511 85.1381 155.159 85.563C153.847 85.9492 152.36 86.3161 150.699 86.6636C149.039 86.9726 147.379 87.2622 145.718 87.5326C144.058 87.7643 142.552 87.9767 141.2 88.1698C138.304 88.5946 135.775 89.2705 133.612 90.1974C131.45 91.1243 129.77 92.3794 128.573 93.9628C127.376 95.5077 126.777 97.4387 126.777 99.7559C126.777 103.116 127.994 105.684 130.427 107.461C132.898 109.199 136.026 110.067 139.81 110.067Z" fill="url(#paint1_linear_1320_46598)"/>
<path d="M226.665 73.9769V125.419H201.99V36.4381H225.506V52.1372H226.549C228.518 46.9621 231.82 42.8684 236.453 39.856C241.087 36.805 246.706 35.2795 253.309 35.2795C259.487 35.2795 264.874 36.6312 269.469 39.3346C274.064 42.038 277.636 45.9001 280.185 50.9207C282.733 55.9027 284.008 61.8502 284.008 68.7632V125.419H259.333V73.1659C259.371 67.7205 257.981 63.4722 255.162 60.4212C252.343 57.3316 248.463 55.7868 243.52 55.7868C240.199 55.7868 237.264 56.5013 234.716 57.9302C232.206 59.3592 230.236 61.4447 228.808 64.1867C227.418 66.8901 226.703 70.1535 226.665 73.9769Z" fill="url(#paint2_linear_1320_46598)"/>
<path d="M325.813 99.8138L325.871 70.2115H329.462L357.96 36.4381H386.284L347.997 81.1603H342.147L325.813 99.8138ZM303.455 125.419V6.77784H328.13V125.419H303.455ZM359.06 125.419L332.88 86.6636L349.33 69.2266L387.964 125.419H359.06Z" fill="url(#paint3_linear_1320_46598)"/>
<path d="M430.363 127.273C422.176 127.273 415.322 125.322 409.8 121.422C404.278 117.521 400.378 112.056 398.1 105.028C395.86 97.9987 395.494 89.8112 397 80.4651C398.467 71.3507 401.382 63.4143 405.746 56.6558C410.148 49.8586 415.612 44.6063 422.138 40.8988C428.702 37.1526 435.923 35.2795 443.801 35.2795C451.987 35.2795 458.822 37.2491 464.305 41.1884C469.827 45.089 473.727 50.5731 476.006 57.6406C478.284 64.6695 478.67 72.8956 477.164 82.3189C475.697 91.356 472.743 99.2538 468.302 106.012C463.9 112.732 458.436 117.965 451.91 121.711C445.423 125.419 438.24 127.273 430.363 127.273ZM430.595 114.992C436.85 114.992 442.276 113.389 446.871 110.183C451.504 106.978 455.25 102.749 458.108 97.4966C461.004 92.2442 462.954 86.5671 463.958 80.4651C464.885 74.6721 464.846 69.2846 463.842 64.3026C462.838 59.2819 460.695 55.2461 457.413 52.1951C454.13 49.1055 449.516 47.5607 443.569 47.5607C437.314 47.5607 431.85 49.1828 427.177 52.4269C422.543 55.671 418.798 59.9385 415.94 65.2295C413.083 70.5204 411.171 76.2169 410.206 82.3189C409.279 88.1119 409.298 93.4994 410.264 98.4814C411.268 103.425 413.411 107.422 416.693 110.473C420.014 113.485 424.648 114.992 430.595 114.992Z" fill="url(#paint4_linear_1320_46598)"/>
<path d="M545.411 36.4381L543.558 48.0242H495.598L497.451 36.4381H545.411ZM496.988 125.419L513.901 24.1569C514.674 19.059 516.527 14.8108 519.462 11.4123C522.435 8.01368 525.968 5.46475 530.062 3.76546C534.193 2.06618 538.383 1.21653 542.631 1.21653C545.99 1.21653 548.674 1.48688 550.682 2.02756C552.729 2.56824 554.215 3.0703 555.142 3.53375L549.35 15.3515C548.655 15.1198 547.728 14.8301 546.569 14.4826C545.45 14.135 543.905 13.9612 541.936 13.9612C537.418 13.9612 533.981 15.1005 531.626 17.3791C529.27 19.6577 527.687 22.9983 526.876 27.401L510.658 125.419H496.988Z" fill="url(#paint5_linear_1320_46598)"/>
<path d="M659.619 48.3138H634.249C633.786 45.0311 632.84 42.1153 631.411 39.5664C629.982 36.9788 628.148 34.7775 625.909 32.9623C623.669 31.1472 621.082 29.7568 618.147 28.7913C615.251 27.8258 612.104 27.3431 608.706 27.3431C602.566 27.3431 597.218 28.8686 592.661 31.9196C588.105 34.9319 584.571 39.3346 582.061 45.1277C579.551 50.8821 578.296 57.8723 578.296 66.0984C578.296 74.5562 579.551 81.6623 582.061 87.4167C584.61 93.1711 588.163 97.5159 592.719 100.451C597.276 103.386 602.547 104.854 608.532 104.854C611.891 104.854 615 104.41 617.857 103.521C620.753 102.633 623.321 101.339 625.561 99.64C627.801 97.9021 629.654 95.7973 631.122 93.3256C632.628 90.8539 633.67 88.0347 634.249 84.8678L659.619 84.9837C658.963 90.4291 657.322 95.6814 654.696 100.741C652.109 105.761 648.614 110.261 644.212 114.238C639.849 118.178 634.636 121.306 628.573 123.623C622.549 125.902 615.734 127.041 608.126 127.041C597.546 127.041 588.085 124.647 579.745 119.858C571.442 115.069 564.878 108.136 560.051 99.0607C555.263 89.985 552.869 78.9975 552.869 66.0984C552.869 53.1607 555.301 42.1539 560.167 33.0782C565.032 24.0024 571.635 17.0894 579.976 12.3391C588.317 7.55024 597.7 5.15579 608.126 5.15579C615 5.15579 621.371 6.1213 627.241 8.05231C633.149 9.98331 638.381 12.8026 642.938 16.5101C647.494 20.179 651.201 24.6783 654.059 30.0079C656.955 35.3374 658.808 41.4394 659.619 48.3138Z" fill="url(#paint6_linear_1320_46598)"/>
<path d="M701.816 73.9769V125.419H677.141V6.77784H701.121V52.1372H702.163C704.171 46.8849 707.415 42.7718 711.894 39.7981C716.374 36.7857 721.992 35.2795 728.75 35.2795C734.928 35.2795 740.315 36.6312 744.91 39.3346C749.544 41.9994 753.135 45.8421 755.684 50.8628C758.271 55.8448 759.545 61.8116 759.506 68.7632V125.419H734.832V73.1659C734.87 67.6818 733.48 63.4143 730.661 60.3633C727.881 57.3123 723.981 55.7868 718.961 55.7868C715.601 55.7868 712.628 56.5013 710.041 57.9302C707.492 59.3592 705.484 61.4447 704.017 64.1867C702.588 66.8901 701.854 70.1535 701.816 73.9769Z" fill="url(#paint7_linear_1320_46598)"/>
<path d="M804.295 127.099C798.618 127.099 793.56 126.114 789.119 124.145C784.679 122.136 781.165 119.182 778.577 115.281C776.029 111.342 774.754 106.437 774.754 100.567C774.754 95.6235 775.662 91.4718 777.477 88.1119C779.292 84.7519 781.763 82.0485 784.891 80.0017C788.019 77.9548 791.571 76.41 795.549 75.3672C799.565 74.3245 803.774 73.5907 808.176 73.1659C813.35 72.6252 817.52 72.1231 820.687 71.6597C823.853 71.1576 826.151 70.4239 827.58 69.4584C829.008 68.4929 829.723 67.0639 829.723 65.1715V64.8239C829.723 61.155 828.564 58.3164 826.247 56.3082C823.969 54.2999 820.725 53.2958 816.516 53.2958C812.076 53.2958 808.542 54.2806 805.917 56.2503C803.291 58.1813 801.553 60.6143 800.704 63.5495L777.882 61.6957C779.041 56.2889 781.319 51.6158 784.717 47.6766C788.115 43.6987 792.498 40.6477 797.865 38.5236C803.272 36.3609 809.527 35.2795 816.632 35.2795C821.575 35.2795 826.305 35.8588 830.823 37.0174C835.38 38.176 839.415 39.9719 842.929 42.4049C846.482 44.838 849.281 47.9662 851.328 51.7896C853.374 55.5744 854.398 60.1123 854.398 65.4032V125.419H830.997V113.08H830.302C828.873 115.86 826.962 118.313 824.568 120.437C822.174 122.522 819.297 124.164 815.937 125.361C812.578 126.52 808.697 127.099 804.295 127.099ZM811.361 110.067C814.991 110.067 818.196 109.353 820.976 107.924C823.757 106.456 825.938 104.487 827.522 102.015C829.105 99.5435 829.897 96.7435 829.897 93.6153V84.1726C829.124 84.6747 828.062 85.1381 826.711 85.563C825.398 85.9492 823.911 86.3161 822.251 86.6636C820.59 86.9726 818.93 87.2622 817.269 87.5326C815.609 87.7643 814.103 87.9767 812.751 88.1698C809.855 88.5946 807.326 89.2705 805.164 90.1974C803.001 91.1243 801.322 92.3794 800.124 93.9628C798.927 95.5077 798.329 97.4387 798.329 99.7559C798.329 103.116 799.545 105.684 801.978 107.461C804.449 109.199 807.577 110.067 811.361 110.067Z" fill="url(#paint8_linear_1320_46598)"/>
<path d="M873.541 125.419V36.4381H898.216V125.419H873.541ZM885.936 24.9679C882.268 24.9679 879.121 23.7514 876.495 21.3183C873.908 18.8466 872.614 15.8922 872.614 12.455C872.614 9.05643 873.908 6.14061 876.495 3.70754C879.121 1.23585 882.268 0 885.936 0C889.605 0 892.733 1.23585 895.32 3.70754C897.946 6.14061 899.259 9.05643 899.259 12.455C899.259 15.8922 897.946 18.8466 895.32 21.3183C892.733 23.7514 889.605 24.9679 885.936 24.9679Z" fill="url(#paint9_linear_1320_46598)"/>
<path d="M942.657 73.9769V125.419H917.982V36.4381H941.498V52.1372H942.541C944.51 46.9621 947.812 42.8684 952.446 39.856C957.079 36.805 962.698 35.2795 969.301 35.2795C975.479 35.2795 980.866 36.6312 985.461 39.3346C990.057 42.038 993.628 45.9001 996.177 50.9207C998.726 55.9027 1000 61.8502 1000 68.7632V125.419H975.325V73.1659C975.364 67.7205 973.973 63.4722 971.155 60.4212C968.336 57.3316 964.455 55.7868 959.512 55.7868C956.191 55.7868 953.257 56.5013 950.708 57.9302C948.198 59.3592 946.229 61.4447 944.8 64.1867C943.41 66.8901 942.695 70.1535 942.657 73.9769Z" fill="url(#paint10_linear_1320_46598)"/>
<defs>
<linearGradient id="paint0_linear_1320_46598" x1="796.667" y1="9.75758" x2="770.44" y2="228.459" gradientUnits="userSpaceOnUse">
<stop offset="0.0768536" stop-color="#A68EFD"/>
<stop offset="1" stop-color="#F4ACF3"/>
</linearGradient>
<linearGradient id="paint1_linear_1320_46598" x1="796.667" y1="9.75758" x2="770.44" y2="228.459" gradientUnits="userSpaceOnUse">
<stop offset="0.0768536" stop-color="#A68EFD"/>
<stop offset="1" stop-color="#F4ACF3"/>
</linearGradient>
<linearGradient id="paint2_linear_1320_46598" x1="796.667" y1="9.75758" x2="770.44" y2="228.459" gradientUnits="userSpaceOnUse">
<stop offset="0.0768536" stop-color="#A68EFD"/>
<stop offset="1" stop-color="#F4ACF3"/>
</linearGradient>
<linearGradient id="paint3_linear_1320_46598" x1="796.667" y1="9.75758" x2="770.44" y2="228.459" gradientUnits="userSpaceOnUse">
<stop offset="0.0768536" stop-color="#A68EFD"/>
<stop offset="1" stop-color="#F4ACF3"/>
</linearGradient>
<linearGradient id="paint4_linear_1320_46598" x1="796.667" y1="9.75758" x2="770.44" y2="228.459" gradientUnits="userSpaceOnUse">
<stop offset="0.0768536" stop-color="#A68EFD"/>
<stop offset="1" stop-color="#F4ACF3"/>
</linearGradient>
<linearGradient id="paint5_linear_1320_46598" x1="796.667" y1="9.75758" x2="770.44" y2="228.459" gradientUnits="userSpaceOnUse">
<stop offset="0.0768536" stop-color="#A68EFD"/>
<stop offset="1" stop-color="#F4ACF3"/>
</linearGradient>
<linearGradient id="paint6_linear_1320_46598" x1="796.667" y1="9.75758" x2="770.44" y2="228.459" gradientUnits="userSpaceOnUse">
<stop offset="0.0768536" stop-color="#A68EFD"/>
<stop offset="1" stop-color="#F4ACF3"/>
</linearGradient>
<linearGradient id="paint7_linear_1320_46598" x1="796.667" y1="9.75758" x2="770.44" y2="228.459" gradientUnits="userSpaceOnUse">
<stop offset="0.0768536" stop-color="#A68EFD"/>
<stop offset="1" stop-color="#F4ACF3"/>
</linearGradient>
<linearGradient id="paint8_linear_1320_46598" x1="796.667" y1="9.75758" x2="770.44" y2="228.459" gradientUnits="userSpaceOnUse">
<stop offset="0.0768536" stop-color="#A68EFD"/>
<stop offset="1" stop-color="#F4ACF3"/>
</linearGradient>
<linearGradient id="paint9_linear_1320_46598" x1="796.667" y1="9.75758" x2="770.44" y2="228.459" gradientUnits="userSpaceOnUse">
<stop offset="0.0768536" stop-color="#A68EFD"/>
<stop offset="1" stop-color="#F4ACF3"/>
</linearGradient>
<linearGradient id="paint10_linear_1320_46598" x1="796.667" y1="9.75758" x2="770.44" y2="228.459" gradientUnits="userSpaceOnUse">
<stop offset="0.0768536" stop-color="#A68EFD"/>
<stop offset="1" stop-color="#F4ACF3"/>
</linearGradient>
</defs>
</svg>
