<svg width="400" height="400" viewBox="0 0 400 400" fill="none" xmlns="http://www.w3.org/2000/svg">
<path d="M163.262 230.572C160.159 233.675 156.338 235.965 152.138 237.237C147.938 238.509 143.488 238.725 139.185 237.865C134.881 237.005 130.857 235.096 127.468 232.308C124.079 229.519 121.431 225.937 119.759 221.88C118.087 217.822 117.442 213.414 117.882 209.048C118.322 204.681 119.833 200.491 122.282 196.849C124.73 193.207 128.039 190.225 131.916 188.169C135.793 186.112 140.118 185.045 144.506 185.061C146.256 185.063 148.001 185.241 149.715 185.593C153.085 186.274 156.289 187.605 159.15 189.512C160.628 190.496 162.006 191.623 163.262 192.879L182.116 211.718L163.262 230.572Z" fill="url(#paint0_linear_1320_46570)"/>
<path fill-rule="evenodd" clip-rule="evenodd" d="M200 400C310.457 400 400 310.457 400 200C400 89.5431 310.457 0 200 0C89.5431 0 0 89.5431 0 200C0 310.457 89.5431 400 200 400ZM273.082 185.589C276.577 184.887 280.177 184.887 283.672 185.589C286.753 186.205 289.7 187.365 292.374 189.015C293.88 189.968 295.665 190.382 297.437 190.19C299.209 189.999 300.864 189.212 302.132 187.959L320.564 169.527C321.361 168.732 321.979 167.776 322.375 166.722C322.772 165.669 322.939 164.543 322.864 163.42C322.789 162.296 322.475 161.202 321.942 160.211C321.409 159.219 320.671 158.353 319.775 157.671C318.214 156.467 316.615 155.343 314.977 154.3C301.914 145.957 286.392 142.329 270.984 144.019C255.576 145.708 241.209 152.613 230.264 163.589L211.41 182.447L192.552 163.589C182.949 153.995 170.699 147.488 157.374 144.902C144.048 142.316 130.253 143.77 117.759 149.076V127.884C117.759 125.792 116.928 123.787 115.45 122.308C113.971 120.829 111.965 119.998 109.874 119.998H84.2461C82.1548 119.998 80.1491 120.829 78.6703 122.308C77.1915 123.787 76.3607 125.792 76.3607 127.884V211.718C76.3575 225.178 80.3467 238.338 87.8236 249.531C95.3005 260.724 105.929 269.448 118.365 274.6C130.801 279.752 144.486 281.099 157.688 278.472C170.89 275.845 183.016 269.362 192.532 259.842L259.519 192.86C263.221 189.148 267.941 186.618 273.082 185.589ZM283.668 237.841C280.176 238.543 276.578 238.543 273.086 237.841C267.944 236.814 263.222 234.283 259.519 230.571L251.815 222.867C250.336 221.389 248.331 220.558 246.24 220.558C244.149 220.558 242.144 221.389 240.665 222.867L222.529 241.003C221.796 241.736 221.215 242.605 220.819 243.562C220.422 244.519 220.218 245.545 220.218 246.58C220.218 247.616 220.422 248.642 220.819 249.599C221.215 250.556 221.796 251.425 222.529 252.157L230.237 259.861C241.181 270.837 255.549 277.742 270.956 279.431C286.364 281.121 301.887 277.493 314.95 269.15C316.31 268.279 318.104 266.927 319.831 265.519C320.69 264.824 321.393 263.955 321.894 262.97C322.396 261.985 322.685 260.906 322.743 259.802C322.8 258.698 322.625 257.595 322.229 256.563C321.832 255.531 321.224 254.594 320.442 253.813L302.12 235.492C300.853 234.238 299.198 233.45 297.426 233.258C295.654 233.065 293.869 233.479 292.362 234.431C289.688 236.072 286.745 237.227 283.668 237.841Z" fill="url(#paint1_linear_1320_46570)"/>
<defs>
<linearGradient id="paint0_linear_1320_46570" x1="318.667" y1="30.6667" x2="-29.3333" y2="400" gradientUnits="userSpaceOnUse">
<stop offset="0.0768536" stop-color="#A68EFD"/>
<stop offset="1" stop-color="#F4ACF3"/>
</linearGradient>
<linearGradient id="paint1_linear_1320_46570" x1="318.667" y1="30.6667" x2="-29.3333" y2="400" gradientUnits="userSpaceOnUse">
<stop offset="0.0768536" stop-color="#A68EFD"/>
<stop offset="1" stop-color="#F4ACF3"/>
</linearGradient>
</defs>
</svg>
