<svg width="400" height="400" viewBox="0 0 400 400" fill="none" xmlns="http://www.w3.org/2000/svg">
<path fill-rule="evenodd" clip-rule="evenodd" d="M275.308 185.588C278.902 184.866 282.604 184.866 286.197 185.588C289.366 186.221 292.396 187.414 295.145 189.111C296.694 190.09 298.529 190.516 300.351 190.319C302.173 190.122 303.875 189.313 305.179 188.024L324.131 169.072C324.951 168.254 325.586 167.271 325.994 166.188C326.402 165.105 326.573 163.947 326.496 162.792C326.42 161.637 326.096 160.512 325.549 159.493C325.001 158.473 324.241 157.583 323.32 156.881C321.715 155.643 320.07 154.488 318.387 153.415C304.955 144.836 288.994 141.106 273.151 142.843C257.308 144.581 242.535 151.681 231.281 162.966L211.895 182.357L192.504 162.966C182.63 153.101 170.034 146.41 156.332 143.751C142.63 141.093 128.446 142.587 115.599 148.043V126.253C115.599 124.102 114.745 122.04 113.224 120.519C111.703 118.999 109.641 118.145 107.491 118.145H81.1394C78.989 118.145 76.9266 118.999 75.4061 120.519C73.8855 122.04 73.0312 124.102 73.0312 126.253V212.454C73.028 226.295 77.1298 239.826 84.8178 251.335C92.5059 262.845 103.435 271.815 116.222 277.112C129.009 282.41 143.08 283.795 156.655 281.094C170.23 278.393 182.699 271.726 192.484 261.938L261.362 193.063C265.169 189.247 270.023 186.645 275.308 185.588ZM162.387 231.84C159.196 235.032 155.267 237.386 150.948 238.694C146.63 240.002 142.055 240.224 137.63 239.34C133.205 238.456 129.066 236.493 125.582 233.626C122.097 230.758 119.375 227.075 117.655 222.903C115.936 218.731 115.273 214.199 115.725 209.709C116.178 205.219 117.732 200.911 120.249 197.165C122.766 193.42 126.169 190.354 130.156 188.24C134.142 186.126 138.589 185.028 143.102 185.045C144.9 185.047 146.695 185.23 148.457 185.592C151.922 186.292 155.217 187.66 158.158 189.622C159.679 190.633 161.095 191.792 162.387 193.084L181.773 212.454L162.387 231.84Z" fill="url(#paint0_linear_1320_46576)"/>
<path d="M286.19 239.316C282.599 240.037 278.9 240.037 275.309 239.316C270.022 238.259 265.167 235.657 261.359 231.84L253.438 223.918C251.917 222.398 249.855 221.544 247.705 221.544C245.555 221.544 243.493 222.398 241.973 223.918L223.324 242.567C222.571 243.32 221.973 244.214 221.566 245.198C221.158 246.182 220.948 247.236 220.948 248.301C220.948 249.366 221.158 250.421 221.566 251.405C221.973 252.389 222.571 253.283 223.324 254.036L231.25 261.957C242.504 273.243 257.277 280.343 273.12 282.08C288.963 283.817 304.923 280.087 318.355 271.509C319.754 270.613 321.599 269.222 323.374 267.775C324.257 267.06 324.98 266.167 325.496 265.154C326.012 264.141 326.309 263.032 326.368 261.897C326.428 260.762 326.248 259.627 325.84 258.566C325.433 257.505 324.806 256.542 324.003 255.739L305.163 236.899C303.86 235.61 302.159 234.801 300.337 234.603C298.515 234.405 296.679 234.83 295.13 235.809C292.38 237.497 289.354 238.684 286.19 239.316Z" fill="url(#paint1_linear_1320_46576)"/>
<path fill-rule="evenodd" clip-rule="evenodd" d="M394 200C394 307.143 307.143 394 200 394C92.8568 394 6 307.143 6 200C6 92.8568 92.8568 6 200 6C307.143 6 394 92.8568 394 200ZM389 200C389 304.382 304.382 389 200 389C95.6182 389 11 304.382 11 200C11 95.6182 95.6182 11 200 11C304.382 11 389 95.6182 389 200Z" fill="url(#paint2_linear_1320_46576)"/>
<defs>
<linearGradient id="paint0_linear_1320_46576" x1="315.107" y1="35.7467" x2="-22.4533" y2="394" gradientUnits="userSpaceOnUse">
<stop offset="0.0768536" stop-color="#A68EFD"/>
<stop offset="1" stop-color="#F4ACF3"/>
</linearGradient>
<linearGradient id="paint1_linear_1320_46576" x1="315.107" y1="35.7467" x2="-22.4533" y2="394" gradientUnits="userSpaceOnUse">
<stop offset="0.0768536" stop-color="#A68EFD"/>
<stop offset="1" stop-color="#F4ACF3"/>
</linearGradient>
<linearGradient id="paint2_linear_1320_46576" x1="315.107" y1="35.7467" x2="-22.4533" y2="394" gradientUnits="userSpaceOnUse">
<stop offset="0.0768536" stop-color="#A68EFD"/>
<stop offset="1" stop-color="#F4ACF3"/>
</linearGradient>
</defs>
</svg>
