<svg width="400" height="400" viewBox="0 0 400 400" fill="none" xmlns="http://www.w3.org/2000/svg">
<path d="M162.599 231.322C159.409 234.513 155.48 236.867 151.161 238.175C146.842 239.483 142.268 239.705 137.843 238.821C133.417 237.937 129.279 235.974 125.795 233.107C122.31 230.24 119.588 226.556 117.868 222.384C116.149 218.212 115.486 213.68 115.939 209.19C116.391 204.701 117.945 200.392 120.462 196.647C122.979 192.902 126.382 189.836 130.369 187.722C134.355 185.607 138.802 184.51 143.314 184.526C145.113 184.528 146.908 184.712 148.67 185.073C152.135 185.773 155.43 187.142 158.371 189.103C159.892 190.114 161.308 191.274 162.599 192.565L181.986 211.935L162.599 231.322Z" fill="#1F2023"/>
<path fill-rule="evenodd" clip-rule="evenodd" d="M400 0H0V400H400V0ZM275.52 185.069C279.113 184.348 282.815 184.348 286.409 185.069C289.577 185.702 292.607 186.895 295.356 188.592C296.905 189.572 298.74 189.998 300.562 189.801C302.385 189.603 304.086 188.794 305.39 187.506L324.342 168.553C325.162 167.736 325.797 166.753 326.205 165.67C326.613 164.587 326.784 163.429 326.707 162.274C326.63 161.119 326.307 159.994 325.759 158.975C325.212 157.955 324.452 157.064 323.531 156.363C321.926 155.125 320.281 153.97 318.598 152.897C305.166 144.318 289.205 140.588 273.362 142.326C257.52 144.063 242.747 151.163 231.493 162.448L212.107 181.838L192.717 162.448C182.842 152.583 170.247 145.892 156.545 143.234C142.843 140.575 128.659 142.069 115.812 147.525V125.735C115.812 123.585 114.958 121.522 113.437 120.002C111.917 118.481 109.854 117.627 107.704 117.627H81.3529C79.2025 117.627 77.1402 118.481 75.6197 120.002C74.0991 121.522 73.2449 123.585 73.2449 125.735V211.935C73.2416 225.776 77.3434 239.307 85.0313 250.816C92.7193 262.325 103.648 271.296 116.435 276.593C129.222 281.89 143.293 283.276 156.868 280.575C170.442 277.874 182.911 271.207 192.696 261.419L261.574 192.545C265.381 188.729 270.234 186.127 275.52 185.069ZM286.399 238.797C282.808 239.518 279.109 239.518 275.518 238.797C270.231 237.74 265.376 235.138 261.568 231.321L253.647 223.4C252.126 221.88 250.064 221.026 247.914 221.026C245.764 221.026 243.703 221.88 242.182 223.4L223.534 242.048C222.78 242.801 222.183 243.695 221.775 244.679C221.368 245.663 221.158 246.717 221.158 247.783C221.158 248.848 221.368 249.902 221.775 250.886C222.183 251.87 222.78 252.764 223.534 253.517L231.459 261.438C242.713 272.724 257.486 279.824 273.329 281.561C289.171 283.298 305.132 279.568 318.564 270.99C319.962 270.094 321.807 268.703 323.583 267.256C324.466 266.541 325.189 265.648 325.704 264.635C326.22 263.622 326.517 262.513 326.577 261.378C326.636 260.243 326.456 259.108 326.048 258.047C325.641 256.986 325.015 256.023 324.211 255.22L305.372 236.381C304.069 235.091 302.368 234.282 300.545 234.084C298.723 233.886 296.888 234.311 295.338 235.29C292.589 236.978 289.563 238.165 286.399 238.797Z" fill="#1F2023"/>
</svg>
