<svg width="400" height="400" viewBox="0 0 400 400" fill="none" xmlns="http://www.w3.org/2000/svg">
<path fill-rule="evenodd" clip-rule="evenodd" d="M275.517 185.071C279.111 184.35 282.813 184.35 286.407 185.071C289.575 185.704 292.605 186.897 295.354 188.594C296.903 189.574 298.738 190 300.56 189.802C302.382 189.605 304.084 188.796 305.387 187.508L324.34 168.555C325.159 167.738 325.795 166.755 326.203 165.672C326.61 164.589 326.782 163.431 326.705 162.276C326.628 161.121 326.305 159.996 325.757 158.976C325.209 157.957 324.45 157.066 323.529 156.365C321.924 155.127 320.279 153.972 318.595 152.899C305.163 144.32 289.203 140.59 273.36 142.327C257.518 144.065 242.745 151.165 231.491 162.45L212.105 181.84L192.714 162.45C182.84 152.585 170.245 145.894 156.543 143.236C142.841 140.577 128.657 142.071 115.81 147.527V125.737C115.81 123.587 114.956 121.524 113.435 120.004C111.914 118.483 109.852 117.629 107.702 117.629H81.3507C79.2003 117.629 77.138 118.483 75.6175 120.004C74.0969 121.524 73.2427 123.587 73.2427 125.737V211.937C73.2394 225.778 77.3412 239.309 85.0291 250.818C92.7171 262.327 103.646 271.298 116.433 276.595C129.22 281.892 143.291 283.278 156.865 280.577C170.44 277.876 182.909 271.209 192.694 261.421L261.572 192.547C265.379 188.731 270.232 186.129 275.517 185.071ZM162.597 231.324C159.407 234.515 155.478 236.869 151.159 238.177C146.84 239.485 142.265 239.707 137.84 238.823C133.415 237.939 129.277 235.976 125.793 233.109C122.308 230.241 119.585 226.558 117.866 222.386C116.147 218.214 115.484 213.682 115.936 209.192C116.389 204.703 117.943 200.394 120.46 196.649C122.977 192.904 126.38 189.838 130.366 187.724C134.353 185.609 138.8 184.512 143.312 184.528C145.111 184.53 146.905 184.714 148.668 185.075C152.132 185.775 155.428 187.144 158.369 189.105C159.889 190.116 161.306 191.276 162.597 192.567L181.983 211.937L162.597 231.324Z" fill="white"/>
<path d="M286.397 238.799C282.806 239.52 279.107 239.52 275.516 238.799C270.229 237.742 265.374 235.14 261.566 231.323L253.645 223.402C252.124 221.882 250.062 221.028 247.912 221.028C245.762 221.028 243.7 221.882 242.18 223.402L223.531 242.05C222.778 242.803 222.181 243.697 221.773 244.681C221.365 245.665 221.155 246.719 221.155 247.784C221.155 248.85 221.365 249.904 221.773 250.888C222.181 251.872 222.778 252.766 223.531 253.519L231.457 261.44C242.711 272.726 257.484 279.826 273.326 281.563C289.169 283.3 305.13 279.57 318.561 270.992C319.96 270.096 321.805 268.705 323.58 267.258C324.464 266.543 325.186 265.65 325.702 264.637C326.218 263.624 326.515 262.515 326.575 261.38C326.634 260.245 326.454 259.11 326.046 258.049C325.639 256.988 325.013 256.025 324.209 255.222L305.37 236.383C304.067 235.093 302.365 234.284 300.543 234.086C298.721 233.888 296.885 234.313 295.336 235.292C292.587 236.98 289.56 238.167 286.397 238.799Z" fill="white"/>
<path fill-rule="evenodd" clip-rule="evenodd" d="M5.99658 6H393.998V394.002H5.99658V6ZM10.9966 11H388.998V389.002H10.9966V11Z" fill="white"/>
</svg>
